<svg role="img" viewBox="0 0 24 24" xmlns="http://www.w3.org/2000/svg">
  <title>Instagram icon</title>
  <path fill="#000000" d="M12,2.625c-3.205,0-3.594,0.012-4.828,0.07C6.857,2.764,6.379,2.979,5.948,3.41S5.236,4.643,5.165,5.074 C5.033,5.922,5,6.949,5,12c0,5.049,0.033,6.078,0.165,6.926c0.071,0.431,0.248,0.806,0.583,1.141 C6.862,20.744,7.236,20.921,7.668,20.991C8.516,21.123,9.546,21.157,12,21.157c2.454,0,3.484-0.034,4.332-0.166 c0.431-0.071,0.806-0.248,1.141-0.583c0.335-0.335,0.512-0.71,0.583-1.141c0.132-0.848,0.165-1.877,0.165-6.926 c0-5.049-0.033-6.078-0.165-6.926c-0.071-0.431-0.248-0.806-0.583-1.141c-0.335-0.335-0.71-0.512-1.141-0.583 C15.484,2.637,15.095,2.625,12,2.625z M12,16.882c-2.088,0-3.781-1.693-3.781-3.781S9.912,9.32,12,9.32s3.781,1.693,3.781,3.781 S14.088,16.882,12,16.882z M17.25,6.531c0,0.828-0.672,1.5-1.5,1.5s-1.5-0.672-1.5-1.5s0.672-1.5,1.5-1.5S17.25,5.703,17.25,6.531z M12,18.438c-3.933,0-4.438,0.014-5.977,0.072c-0.748,0.033-1.338,0.206-1.765,0.437c-0.446,0.239-0.775,0.544-1.063,0.931 c-0.289,0.387-0.514,0.878-0.752,1.324c-0.231,0.679-0.398,1.517-0.437,2.841c-0.059,1.539-0.073,2.044-0.073,5.977 c0,3.933,0.014,4.438,0.073,5.977c0.039,1.325,0.206,2.162,0.437,2.841c0.238,0.446,0.463,0.937,0.752,1.324 c0.288,0.387,0.617,0.692,1.063,0.931c0.428,0.231,1.017,0.404,1.765,0.437c1.539,0.058,2.044,0.072,5.977,0.072 c3.933,0,4.438-0.014,5.977-0.072c0.748-0.033,1.338-0.206,1.765-0.437c0.446-0.239,0.775-0.544,1.063-0.931 c0.289-0.387,0.514-0.878,0.752-1.324c0.231-0.679,0.398-1.517,0.437-2.841c0.059-1.539,0.073-2.044,0.073-5.977 c0-3.933-0.014-4.438-0.073-5.977c-0.039-1.325-0.206-2.162-0.437-2.841c-0.238-0.446-0.463-0.937-0.752-1.324 c-0.288-0.387-0.617-0.692-1.063-0.931c-0.428-0.231-1.017-0.404-1.765-0.437C16.438,18.452,15.933,18.438,12,18.438z"/>
</svg>
